<?xml version="1.0" encoding="UTF-8"?>
<svg width="113.67mm" height="56.38mm" version="1.1" viewBox="0 0 113.67 56.38" xmlns="http://www.w3.org/2000/svg"><g transform="translate(-56.556 -109.3)"><g transform="translate(-3.7799 -23.482)"><path d="m143.44 145.03 0.1484-0.70241 5.1426-0.35974-6.2306 29.758-0.69199 0.0483 6.0826-29.055zm1.1868 31.167 7.3184-35.074-10.433 0.72923-1.2851 6.1225 4.4502-0.31125-6.0324 28.953z" fill="#e23229"/><path d="m169.25 142.53-3.5367 16.892 4.7912-0.32874-0.15681 0.75402-4.7923 0.32881-2.5355 12.111-0.75405 0.052 2.5372-12.111-11.373 0.78724zm-18.985 21.327 11.373-0.78724-2.5247 12.111 5.9831-0.41839 2.5251-12.104 4.8266-0.33116 1.2672-6.079-4.8256 0.33109 3.524-16.891-4.5601 0.33565-16.702 19.608z" fill="#e23229"/><g fill="#fefefe"><path d="m88.592 151.83-2.5954 0.18103 0.7417-3.6268 2.5951-0.182zm-4.5817-6.7238-3.9986 19.056 3.4689-0.24195 1.7745-8.3877 6.0644-0.42299 2.2248-10.67z"/><path d="m100.85 147.82 2.8337-0.19837-0.74166 3.6004-2.8337 0.19836zm-6.7269 15.777 3.4693-0.24198 1.7745-8.387 2.8337-0.19837-1.7745 8.387 3.4694-0.24296 3.999-19.056-9.772 0.68329z"/><path d="m108.8 162.69 9.7455-0.68118 1.377-6.505-3.4693 0.24296-0.63527 2.9832-2.8072 0.19654 2.5155-12.014 2.8073-0.19754-0.50239 2.4195 3.469-0.24294 1.2451-5.94-9.7459 0.68119z"/><path d="m135.67 145.62 0.7409-3.5211-8.9513 0.6259-3.9982 19.056 8.951-0.62626 0.74082-3.5208-5.4816 0.383 1.0327-4.8922 3.7868-0.26474 0.74189-3.5211-3.7868 0.26474 0.74081-3.6011z"/></g><g fill="#d5d5d5"><path d="m71.07 172.95-4.7347 0.33077 0.57447-2.7346 2.1393-0.14973-0.37624 1.8092 2.5954-0.18103 0.93087-4.4433-7.3301 0.5118-1.6636 8.0013 4.7347-0.33077-0.77301 3.6202-2.1198 0.1484 0.4757-2.2317-2.615 0.18237-1.0303 4.8662 7.3301-0.5118z"/><path d="m74.795 170 2.4961-0.17422-2.4366 11.621 2.5952-0.182 2.4369-11.621 2.496-0.17421 0.55468-2.6344-7.5875 0.53064z"/><path d="m87.573 171.76 0.55461-2.6932 2.1198-0.1484-0.55498 2.6935zm2.8326 8.598 2.9919-14.255-7.3104 0.51154-2.9915 14.255 2.5952-0.18201 1.3273-6.2738 2.1197-0.14839-1.3273 6.2741z"/><path d="m98.978 179.78 2.4369-11.621 2.4961-0.1752 0.55493-2.6337-7.5875 0.53065-0.55463 2.6337 2.4959-0.17421-2.4366 11.621z"/><path d="m104.62 179.39 2.5951-0.18101 2.9915-14.255-2.5952 0.182z"/><path d="m115.73 167.18 2.1198-0.14839-1.8824 8.9875-2.1195 0.14838zm-5.032 11.802 7.31-0.51042 2.9915-14.255-7.3103 0.51044z"/><path d="m124.09 178.07 1.3665-6.4751 1.1886 6.296 2.2585-0.15792 2.9919-14.255-2.5952 0.18201-1.3673 6.5735-1.1885-6.3951-2.2585 0.15791-2.9908 14.255z"/></g><path d="m66.678 158.66-1.377 6.5054 9.7984-0.68471 2.4894-11.88-6.3291 0.44214 0.76775-3.6546 2.8601-0.20018-0.5032 2.4192 3.4693-0.24297 1.2445-5.94-4.3282 0.30289-8.7288 0.56991 2.9098 1.489-1.8756 9.0191 6.329-0.44213-1.0324 4.8397-2.8336 0.19738 0.6353-2.9835z" fill="#fefefe"/><g fill="#e23229"><path d="m70.519 139.92-0.27746 1.3655 103.47-7.1132 0.29445-1.3889z"/><path d="m60.336 189.17 103.47-7.1136 0.29444-1.3888-103.49 7.1365z"/><path d="m167.93 145.26-12.877 14.895 9.9137-0.68019zm-3.743 7.2776-1.029 4.9361-3.5154 0.2412z"/></g></g></g></svg>