<?xml version="1.0" standalone="no"?>
<!DOCTYPE svg PUBLIC "-//W3C//DTD SVG 20010904//EN"
 "http://www.w3.org/TR/2001/REC-SVG-20010904/DTD/svg10.dtd">
<svg version="1.0" xmlns="http://www.w3.org/2000/svg"
 width="700.000000pt" height="700.000000pt" viewBox="0 0 700.000000 700.000000"
 preserveAspectRatio="xMidYMid meet">
<metadata>
Created by potrace 1.14, written by Peter Selinger 2001-2017
</metadata>
<g transform="translate(0.000000,700.000000) scale(0.100000,-0.100000)"
fill="#000000" stroke="none">
<path d="M5847 6444 c-1 -1 -49 -5 -107 -9 -58 -4 -125 -8 -150 -10 -25 -2
-88 -6 -140 -9 -52 -4 -120 -8 -150 -11 -30 -3 -91 -7 -135 -10 -44 -3 -114
-7 -155 -10 -41 -3 -100 -7 -130 -10 -51 -4 -181 -13 -290 -20 -174 -11 -259
-17 -287 -20 -18 -2 -85 -7 -150 -11 -65 -4 -131 -8 -148 -9 -16 -2 -44 -4
-61 -4 -33 -1 -34 -2 -70 -191 -3 -14 -7 -34 -9 -45 -2 -11 -18 -87 -35 -170
-17 -82 -34 -161 -36 -175 -13 -67 -46 -219 -54 -255 -9 -37 -136 -650 -146
-703 -3 -12 -20 -97 -40 -189 -19 -92 -36 -175 -37 -185 -6 -33 0 -32 -167
-42 -58 -4 -136 -9 -173 -12 -67 -6 -68 -5 -63 18 29 126 39 173 52 238 8 41
16 83 18 93 4 16 -2 18 -57 13 -34 -3 -98 -8 -142 -11 -44 -3 -107 -8 -140
-10 -33 -3 -103 -7 -155 -11 -52 -3 -115 -7 -140 -9 -25 -2 -92 -7 -150 -11
-58 -3 -121 -8 -140 -9 -19 -2 -82 -7 -140 -10 -58 -4 -142 -10 -188 -14 -45
-4 -84 -6 -85 -4 -2 1 27 148 65 325 37 178 73 351 79 386 11 56 15 62 38 63
14 1 37 2 51 4 14 1 77 5 140 9 63 4 133 8 155 11 22 2 84 7 138 11 93 5 99 5
94 -13 -3 -10 -27 -119 -52 -243 -25 -124 -48 -231 -50 -238 -5 -13 61 -12
255 3 52 4 118 9 290 20 41 3 102 8 136 11 l60 6 13 61 c7 34 15 72 17 85 3
12 27 129 55 260 27 130 72 345 100 477 27 132 56 270 64 307 8 37 15 69 15
71 0 3 -15 4 -32 2 -18 -2 -76 -6 -128 -9 -52 -4 -120 -9 -150 -11 -133 -11
-206 -16 -287 -20 -49 -3 -106 -7 -128 -10 -22 -2 -89 -7 -150 -10 -60 -3
-126 -8 -145 -10 -19 -3 -78 -7 -130 -10 -52 -3 -124 -8 -160 -10 -86 -7 -165
-12 -275 -20 -49 -3 -115 -8 -145 -10 -30 -3 -95 -7 -145 -10 -108 -7 -209
-16 -213 -19 -3 -3 -53 -245 -302 -1443 -93 -452 -170 -824 -170 -827 0 -4 21
-4 47 -2 27 3 93 7 148 11 55 3 125 8 155 10 30 3 89 7 130 10 41 3 138 9 215
15 77 5 183 12 235 15 52 3 109 8 125 10 17 2 80 6 140 10 61 4 118 9 128 12
16 4 18 0 14 -29 -4 -27 -75 -365 -190 -896 -19 -87 -25 -102 -42 -103 -11 -1
-31 -2 -45 -4 -14 -1 -72 -5 -130 -9 -58 -4 -125 -8 -150 -11 -151 -14 -250
-16 -250 -5 0 6 4 30 10 53 5 23 33 150 60 282 28 132 53 251 56 264 l5 23
-98 -7 c-54 -4 -118 -8 -143 -10 -25 -2 -90 -6 -145 -10 -55 -3 -120 -8 -145
-10 -25 -2 -84 -6 -131 -10 l-86 -7 -21 -101 c-12 -56 -75 -356 -141 -667 -66
-311 -121 -576 -123 -590 -3 -22 0 -25 27 -23 132 6 283 16 295 18 8 2 71 6
140 10 69 3 136 8 150 10 14 2 72 6 130 10 58 3 125 8 150 10 25 3 88 7 140
10 52 3 111 8 130 10 19 2 88 7 153 10 66 4 131 8 145 10 15 2 83 6 152 10 69
4 139 9 155 11 69 8 255 16 255 10 0 -4 -34 -170 -85 -416 -2 -8 -13 -62 -25
-120 -12 -58 -35 -168 -51 -245 -17 -77 -33 -151 -35 -165 -3 -14 -12 -59 -20
-100 -9 -41 -18 -86 -20 -100 -3 -14 -10 -45 -15 -70 -6 -25 -13 -56 -15 -70
-3 -14 -32 -151 -64 -305 -64 -307 -62 -296 -84 -408 -20 -98 -20 -97 2 -92
11 2 68 6 128 9 103 6 139 9 294 21 80 6 250 17 268 18 6 0 16 16 21 36 8 33
97 453 107 511 3 14 16 76 30 138 13 63 26 126 29 141 3 16 20 102 39 192 19
90 44 209 56 265 27 134 26 128 45 214 9 41 19 86 21 100 3 14 13 66 24 115
10 50 21 101 24 115 3 14 7 36 10 50 3 14 10 48 16 75 6 28 13 61 15 75 3 14
10 45 14 69 5 24 14 47 21 51 6 4 37 8 68 9 31 1 73 4 92 6 19 2 82 6 140 10
58 3 123 9 145 11 l40 6 -21 -24 c-12 -12 -45 -52 -75 -88 -57 -68 -60 -78
-104 -305 -2 -11 -8 -40 -14 -65 -33 -148 -41 -206 -26 -204 6 1 62 5 125 9
63 4 135 8 160 10 56 3 218 15 285 20 88 6 300 20 445 30 52 3 115 8 140 10
25 2 85 7 133 10 82 5 87 5 78 -12 -6 -10 -17 -52 -25 -93 -8 -41 -26 -129
-40 -195 -14 -66 -27 -131 -30 -145 -2 -14 -36 -178 -76 -365 -39 -187 -73
-351 -76 -365 -3 -14 -18 -85 -33 -159 l-29 -133 112 7 c61 4 131 8 156 11
119 10 389 27 433 28 15 0 27 1 27 2 0 0 16 75 35 167 19 91 36 176 39 189 3
12 14 68 26 123 12 55 23 109 25 120 2 11 12 64 24 119 12 54 23 108 26 120 2
11 6 32 9 46 3 14 9 41 12 60 3 19 10 49 15 65 4 17 11 46 14 65 8 51 14 82
19 105 3 11 17 79 32 150 15 72 30 133 33 137 3 4 44 9 91 12 47 4 112 8 145
11 90 6 244 17 293 19 23 2 46 7 51 12 5 5 16 47 25 94 21 104 24 118 31 150
3 14 7 34 9 45 13 62 51 244 71 333 12 56 19 105 14 108 -4 2 -21 2 -36 0 -15
-3 -80 -8 -143 -12 -63 -3 -131 -8 -150 -9 -19 -2 -83 -6 -142 -10 l-107 -7 5
23 c2 13 9 44 14 69 5 25 61 295 125 600 107 511 167 798 246 1180 17 80 32
153 34 163 4 19 10 19 -190 2 -22 -2 -87 -7 -145 -11 -58 -4 -114 -8 -125 -9
-11 -1 -36 -3 -55 -4 -32 -1 -43 -10 -105 -85 -76 -92 -99 -107 -85 -53 5 17
11 45 14 61 3 15 14 69 25 120 39 178 61 282 67 323 l6 42 -43 -4 c-24 -3 -82
-7 -129 -10 -47 -3 -110 -7 -140 -10 -30 -2 -93 -7 -140 -10 -47 -3 -112 -8
-145 -10 -33 -2 -100 -7 -150 -10 -49 -3 -115 -8 -145 -10 -57 -5 -129 -10
-290 -21 -52 -3 -110 -7 -127 -9 -18 -1 -33 -1 -33 1 0 1 12 56 26 121 14 65
28 128 30 141 9 52 14 75 48 232 20 91 37 174 39 185 14 78 20 95 36 96 9 1
30 2 46 4 17 1 79 6 139 10 61 4 130 9 155 10 187 14 251 17 251 13 0 -2 -21
-102 -46 -223 -25 -121 -48 -235 -51 -254 l-6 -33 94 6 c52 4 119 9 149 11 30
3 91 7 135 10 74 5 118 8 284 20 36 3 68 8 72 12 6 7 23 82 75 338 16 81 35
173 38 190 2 11 11 50 20 88 9 37 18 82 21 100 3 17 23 115 45 217 22 102 41
196 44 210 2 14 9 44 14 68 l10 43 -75 -3 c-41 -1 -75 -3 -76 -4z m-1069
-2358 c-5 -23 -11 -48 -13 -56 -100 -478 -179 -830 -190 -845 -8 -11 -29 -37
-47 -57 l-33 -37 -105 -7 c-58 -3 -118 -7 -135 -9 -16 -1 -86 -5 -155 -10 -69
-4 -129 -9 -134 -12 -4 -3 -6 3 -3 13 11 36 26 99 31 129 6 37 13 71 20 93 3
9 8 32 11 51 8 48 64 312 71 334 5 16 -1 17 -78 12 -46 -3 -101 -7 -123 -10
-22 -2 -91 -7 -154 -11 -107 -6 -113 -5 -108 12 3 11 11 46 18 79 7 33 14 65
15 70 1 6 5 25 8 43 14 71 37 176 40 179 4 4 55 9 181 18 55 3 125 8 155 10
134 9 229 16 280 20 30 2 91 7 135 9 187 13 260 18 262 20 2 1 16 2 31 2 29 0
29 0 20 -40z"/>
</g>
</svg>
