<?xml version="1.0" encoding="UTF-8" standalone="no"?>
<svg
   width="171.12pt"
   height="173.03999pt"
   viewBox="0 0 171.12 173.03999"
   version="1.2"
   id="svg58"
   xmlns:xlink="http://www.w3.org/1999/xlink"
   xmlns="http://www.w3.org/2000/svg"
   xmlns:svg="http://www.w3.org/2000/svg">
  <defs
     id="defs35">
    <clipPath
       id="clip1">
      <path
         d="M 0 0 L 171 0 L 171 171 L 0 171 Z M 0 0 "
         id="path2" />
    </clipPath>
    <filter
       id="alpha"
       filterUnits="objectBoundingBox"
       x="0"
       y="0"
       width="1"
       height="1">
      <feColorMatrix
         type="matrix"
         in="SourceGraphic"
         values="0 0 0 0 1 0 0 0 0 1 0 0 0 0 1 0 0 0 1 0"
         id="feColorMatrix5" />
    </filter>
    <mask
       id="mask0">
      <g
         filter="url(#alpha)"
         id="g10">
        <rect
           x="0"
           y="0"
           width="171.12"
           height="173.03999"
           style="fill:rgb(0%,0%,0%);fill-opacity:0.2471;stroke:none;"
           id="rect8" />
      </g>
    </mask>
    <clipPath
       id="clip2">
      <rect
         x="0"
         y="0"
         width="63"
         height="62"
         id="rect13" />
    </clipPath>
    <g
       id="surface5"
       clip-path="url(#clip2)">
      <path
         style=" stroke:none;fill-rule:nonzero;fill:rgb(0%,0%,0%);fill-opacity:1;"
         d="M 61.015625 22.164062 L 11.621094 50.957031 L 40.414062 1.558594 Z M 61.015625 22.164062 "
         id="path16" />
    </g>
    <mask
       id="mask1">
      <g
         filter="url(#alpha)"
         id="g21">
        <rect
           x="0"
           y="0"
           width="171.12"
           height="173.03999"
           style="fill:rgb(0%,0%,0%);fill-opacity:0.2471;stroke:none;"
           id="rect19" />
      </g>
    </mask>
    <clipPath
       id="clip4">
      <path
         d="M 0.078125 11 L 50 11 L 50 60.679688 L 0.078125 60.679688 Z M 0.078125 11 "
         id="path24" />
    </clipPath>
    <clipPath
       id="clip3">
      <rect
         x="0"
         y="0"
         width="61"
         height="61"
         id="rect27" />
    </clipPath>
    <g
       id="surface8"
       clip-path="url(#clip3)">
      <g
         clip-path="url(#clip4)"
         clip-rule="nonzero"
         id="g32">
        <path
           style=" stroke:none;fill-rule:nonzero;fill:rgb(0%,0%,0%);fill-opacity:1;"
           d="M 0.214844 39.851562 L 49.644531 11.015625 L 20.808594 60.441406 Z M 0.214844 39.851562 "
           id="path30" />
      </g>
    </g>
  </defs>
  <g
     id="surface1">
    <g
       clip-path="url(#clip1)"
       clip-rule="nonzero"
       id="g39">
      <path
         style="fill:none;stroke:#d4d4d4;stroke-width:18;stroke-linecap:butt;stroke-linejoin:miter;stroke-miterlimit:4;stroke-opacity:1"
         d="m 218.99801,113.99782 c 0,1.72105 -0.0418,3.43688 -0.12555,5.15271 -0.0837,1.71582 -0.20925,3.43165 -0.37665,5.14224 -0.16739,1.7106 -0.38187,3.41596 -0.63297,5.11609 -0.25109,1.70014 -0.54404,3.38981 -0.87884,5.07425 -0.33479,1.68443 -0.71144,3.36364 -1.12993,5.03239 -0.4185,1.66351 -0.87884,3.3218 -1.3758,4.96439 -0.49696,1.64259 -1.03577,3.27471 -1.61643,4.89115 -0.58067,1.62166 -1.19794,3.2224 -1.85707,4.81268 -0.6539,1.58505 -1.34965,3.1544 -2.08724,4.70806 -0.73237,1.55366 -1.50658,3.09162 -2.31741,4.60344 -0.81084,1.51704 -1.65306,3.01315 -2.53712,4.48311 -0.88407,1.4752 -1.80476,2.92946 -2.75684,4.35757 -0.9573,1.42812 -1.94599,2.83007 -2.9713,4.2111 -1.02008,1.38103 -2.07678,2.73591 -3.1701,4.06463 -1.08808,1.32872 -2.21279,2.63128 -3.36364,3.90246 -1.15609,1.27117 -2.33834,2.51619 -3.55721,3.72982 -1.21363,1.21887 -2.45865,2.40112 -3.72982,3.55721 -1.27118,1.15085 -2.57374,2.27556 -3.90246,3.36364 -1.32872,1.09332 -2.6836,2.15002 -4.06463,3.1701 -1.38103,1.02531 -2.78298,2.014 -4.2111,2.9713 -1.42811,0.95208 -2.88237,1.87277 -4.35757,2.75684 -1.46996,0.88406 -2.96607,1.72628 -4.48311,2.53712 -1.51182,0.81083 -3.04978,1.58504 -4.60344,2.31741 -1.55366,0.73759 -3.12301,1.43334 -4.70806,2.08724 -1.59028,0.65913 -3.19102,1.2764 -4.81268,1.85707 -1.61644,0.58066 -3.24856,1.11947 -4.89115,1.61643 -1.64259,0.49696 -3.30088,0.9573 -4.96439,1.3758 -1.66875,0.41849 -3.34796,0.79514 -5.03239,1.12993 -1.68444,0.3348 -3.37411,0.62775 -5.07425,0.87884 -1.70013,0.2511 -3.40549,0.46558 -5.11609,0.63297 -1.71059,0.1674 -3.42642,0.29295 -5.14224,0.37665 -1.71583,0.0837 -3.43166,0.12555 -5.15271,0.12555 -1.71583,0 -3.43166,-0.0418 -5.14748,-0.12555 -1.72106,-0.0837 -3.43166,-0.20925 -5.14225,-0.37665 -1.71059,-0.16739 -3.41596,-0.38187 -5.116091,-0.63297 -1.700133,-0.25109 -3.389803,-0.54404 -5.074242,-0.87884 -1.689671,-0.33479 -3.363647,-0.71144 -5.032393,-1.12993 -1.663514,-0.4185 -3.321797,-0.87884 -4.964387,-1.3758 -1.647821,-0.49696 -3.274717,-1.03577 -4.896382,-1.61643 -1.616434,-0.58067 -3.217174,-1.19794 -4.807452,-1.85707 -1.585047,-0.6539 -3.159631,-1.34965 -4.70806,-2.08724 -1.553659,-0.73237 -3.091625,-1.50658 -4.603436,-2.31741 -1.517041,-0.81084 -3.013158,-1.65306 -4.48835,-2.53712 -1.469961,-0.88407 -2.924228,-1.80476 -4.352339,-2.75684 -1.428112,-0.9573 -2.835298,-1.94599 -4.211098,-2.9713 -1.381031,-1.02008 -2.735906,-2.07678 -4.064625,-3.1701 -1.328719,-1.08808 -2.631282,-2.21279 -3.902458,-3.36364 -1.271176,-1.15609 -2.516196,-2.33834 -3.735061,-3.55721 -1.213633,-1.21363 -2.395879,-2.45865 -3.551969,-3.72982 -1.15609,-1.27118 -2.275562,-2.57374 -3.363647,-3.90246 -1.093316,-1.32872 -2.150014,-2.6836 -3.175325,-4.06463 -1.020079,-1.38103 -2.008772,-2.78298 -2.966077,-4.2111 -0.952074,-1.42811 -1.872762,-2.88237 -2.756831,-4.35757 -0.884069,-1.46996 -1.731519,-2.96607 -2.537121,-4.48311 -0.810832,-1.51182 -1.585046,-3.04978 -2.317411,-4.60344 -0.737596,-1.55366 -1.433343,-3.12301 -2.092471,-4.70806 -0.653897,-1.59028 -1.276407,-3.19102 -1.851837,-4.81268 -0.580661,-1.61644 -1.119472,-3.24856 -1.616434,-4.89115 -0.502193,-1.64259 -0.957305,-3.30088 -1.375799,-4.96439 -0.418494,-1.66875 -0.795139,-3.34796 -1.129935,-5.03239 -0.334795,-1.68444 -0.627741,-3.37411 -0.878837,-5.07425 -0.251097,-1.70013 -0.465575,-3.40549 -0.632973,-5.11609 -0.167398,-1.71059 -0.292946,-3.42642 -0.376645,-5.14224 -0.083698,-1.71583 -0.130779,-3.43166 -0.130779,-5.15271 0,-1.71583 0.047081,-3.43166 0.130779,-5.14748 0.083699,-1.72106 0.209247,-3.43166 0.376645,-5.14225 0.167398,-1.71059 0.381876,-3.41596 0.632973,-5.116091 0.251096,-1.700133 0.544042,-3.389803 0.878837,-5.074242 0.334796,-1.689671 0.711441,-3.363647 1.129935,-5.032393 0.418494,-1.663514 0.873606,-3.321797 1.375799,-4.964387 0.496962,-1.647821 1.035773,-3.274717 1.616434,-4.896382 0.57543,-1.616434 1.19794,-3.217174 1.851837,-4.807452 0.659128,-1.585047 1.354875,-3.159631 2.092471,-4.70806 0.732365,-1.553659 1.506579,-3.091625 2.317411,-4.603436 0.805602,-1.517041 1.653052,-3.013158 2.537121,-4.48835 0.884069,-1.469961 1.804757,-2.924228 2.756831,-4.352339 0.957305,-1.428112 1.945998,-2.835298 2.966077,-4.211098 1.025311,-1.381031 2.082009,-2.735906 3.175325,-4.064625 1.088085,-1.328719 2.207557,-2.631282 3.363647,-3.902458 1.15609,-1.271176 2.338336,-2.516196 3.551969,-3.735061 1.218865,-1.213633 2.463885,-2.395879 3.735061,-3.551969 1.271176,-1.15609 2.573739,-2.275562 3.902458,-3.363647 1.328719,-1.093316 2.683594,-2.150014 4.064625,-3.175325 1.3758,-1.020079 2.782986,-2.008772 4.211098,-2.966077 1.428111,-0.952074 2.882378,-1.872762 4.352339,-2.756831 1.475192,-0.884069 2.971309,-1.731519 4.48835,-2.537121 1.511811,-0.810832 3.049777,-1.585046 4.603436,-2.317411 1.548429,-0.737596 3.123013,-1.433343 4.70806,-2.092471 1.590278,-0.653897 3.191018,-1.276407 4.807452,-1.851837 1.621665,-0.580661 3.248561,-1.119472 4.896382,-1.616434 1.64259,-0.502193 3.300873,-0.957305 4.964387,-1.375799 1.668746,-0.418494 3.342722,-0.795139 5.032393,-1.129935 1.684439,-0.334795 3.374109,-0.627741 5.074242,-0.878837 1.700131,-0.251097 3.405501,-0.465575 5.116091,-0.632973 1.71059,-0.167398 3.42119,-0.292946 5.14225,-0.376645 1.71582,-0.083698 3.43165,-0.130779 5.14748,-0.130779 1.72105,0 3.43688,0.047081 5.15271,0.130779 1.71582,0.083699 3.43165,0.209247 5.14224,0.376645 1.7106,0.167398 3.41596,0.381876 5.11609,0.632973 1.70014,0.251096 3.38981,0.544042 5.07425,0.878837 1.68443,0.334796 3.36364,0.711441 5.03239,1.129935 1.66351,0.418494 3.3218,0.873606 4.96439,1.375799 1.64259,0.496962 3.27471,1.035773 4.89115,1.616434 1.62166,0.57543 3.2224,1.19794 4.81268,1.851837 1.58505,0.659128 3.1544,1.354875 4.70806,2.092471 1.55366,0.732365 3.09162,1.506579 4.60344,2.317411 1.51704,0.805602 3.01315,1.653052 4.48311,2.537121 1.4752,0.884069 2.92946,1.804757 4.35757,2.756831 1.42812,0.957305 2.83007,1.945998 4.2111,2.966077 1.38103,1.025311 2.73591,2.082009 4.06463,3.175325 1.32872,1.088085 2.63128,2.207557 3.90246,3.363647 1.27117,1.15609 2.51619,2.338336 3.72982,3.551969 1.21887,1.218865 2.40112,2.463885 3.55721,3.735061 1.15085,1.271176 2.27556,2.573739 3.36364,3.902458 1.09332,1.328719 2.15002,2.683594 3.1701,4.064625 1.02531,1.3758 2.014,2.782986 2.9713,4.211098 0.95208,1.428111 1.87277,2.882378 2.75684,4.352339 0.88406,1.475192 1.72628,2.971309 2.53712,4.48835 0.81083,1.511811 1.58504,3.049777 2.31741,4.603436 0.73759,1.548429 1.43334,3.123013 2.08724,4.70806 0.65913,1.590278 1.2764,3.191018 1.85707,4.807452 0.58066,1.621665 1.11947,3.248561 1.61643,4.896382 0.49696,1.64259 0.9573,3.300873 1.3758,4.964387 0.41849,1.668746 0.79514,3.342722 1.12993,5.032393 0.3348,1.684439 0.62775,3.374109 0.87884,5.074242 0.2511,1.700131 0.46558,3.405501 0.63297,5.116091 0.1674,1.71059 0.29295,3.42119 0.37665,5.14225 0.0837,1.71582 0.12555,3.43165 0.12555,5.14748 z m 0,0"
         transform="scale(0.746725)"
         id="path37" />
    </g>
    <path
       style="fill:#000000;fill-opacity:1;fill-rule:nonzero;stroke:none"
       d="m 89.980469,24.640625 c 0,0.441406 -0.03125,0.878906 -0.09375,1.3125 -0.0625,0.433594 -0.152344,0.851563 -0.277344,1.261719 -0.121094,0.40625 -0.269531,0.792968 -0.445313,1.160156 -0.179687,0.367188 -0.378906,0.707031 -0.605468,1.019531 -0.226563,0.3125 -0.46875,0.589844 -0.734375,0.835938 -0.265625,0.246093 -0.546875,0.453125 -0.839844,0.621093 -0.292969,0.167969 -0.597656,0.296876 -0.910156,0.382813 -0.3125,0.08594 -0.628907,0.128906 -0.949219,0.128906 -0.316406,0 -0.632812,-0.04297 -0.945312,-0.128906 -0.3125,-0.08594 -0.617188,-0.214844 -0.910157,-0.382813 -0.292969,-0.167968 -0.574219,-0.375 -0.839843,-0.621093 -0.265626,-0.246094 -0.511719,-0.523438 -0.734376,-0.835938 -0.226562,-0.3125 -0.425781,-0.652343 -0.605468,-1.019531 -0.175782,-0.367188 -0.324219,-0.753906 -0.449219,-1.160156 -0.121094,-0.410156 -0.210937,-0.828125 -0.273437,-1.261719 -0.0625,-0.433594 -0.09375,-0.871094 -0.09375,-1.3125 0,-0.441406 0.03125,-0.878906 0.09375,-1.308594 0.0625,-0.433593 0.152343,-0.855469 0.273437,-1.261719 0.125,-0.40625 0.273437,-0.796874 0.449219,-1.164062 0.179687,-0.363281 0.378906,-0.703125 0.605468,-1.015625 0.222657,-0.3125 0.46875,-0.589844 0.734376,-0.835937 0.265624,-0.246094 0.546874,-0.453126 0.839843,-0.621094 0.292969,-0.167969 0.597657,-0.296875 0.910157,-0.382813 0.3125,-0.08594 0.628906,-0.128906 0.945312,-0.128906 0.320312,0 0.636719,0.04297 0.949219,0.128906 0.3125,0.08594 0.617187,0.214844 0.910156,0.382813 0.292969,0.167968 0.574219,0.375 0.839844,0.621094 0.265625,0.246093 0.507812,0.523437 0.734375,0.835937 0.226562,0.3125 0.425781,0.652344 0.605468,1.015625 0.175782,0.367188 0.324219,0.757812 0.445313,1.164062 0.125,0.40625 0.214844,0.828126 0.277344,1.261719 0.0625,0.429688 0.09375,0.867188 0.09375,1.308594 z m 0,0"
       id="path41" />
    <path
       style="fill:#000000;fill-opacity:1;fill-rule:nonzero;stroke:none"
       d="m 145.98437,89.980469 c -0.4414,0 -0.8789,-0.03125 -1.3125,-0.09375 -0.42968,-0.0625 -0.85156,-0.152344 -1.25781,-0.277344 -0.41015,-0.121094 -0.79687,-0.269531 -1.16406,-0.445313 -0.36719,-0.179687 -0.70703,-0.378906 -1.01563,-0.605468 -0.3125,-0.226563 -0.59375,-0.46875 -0.83593,-0.734375 -0.2461,-0.265625 -0.45313,-0.546875 -0.6211,-0.839844 -0.17187,-0.292969 -0.29687,-0.597656 -0.38281,-0.910156 -0.0859,-0.3125 -0.12891,-0.628907 -0.12891,-0.949219 0,-0.316406 0.043,-0.632812 0.12891,-0.945312 0.0859,-0.3125 0.21094,-0.617188 0.38281,-0.910157 0.16797,-0.292969 0.375,-0.574219 0.6211,-0.839843 0.24218,-0.265626 0.52343,-0.511719 0.83593,-0.734376 0.3086,-0.226562 0.64844,-0.425781 1.01563,-0.605468 0.36719,-0.175782 0.75391,-0.324219 1.16406,-0.449219 0.40625,-0.121094 0.82813,-0.210937 1.25781,-0.273437 0.4336,-0.0625 0.8711,-0.09375 1.3125,-0.09375 0.44141,0 0.87891,0.03125 1.3125,0.09375 0.4336,0.0625 0.85157,0.152343 1.25782,0.273437 0.41015,0.125 0.79687,0.273437 1.16406,0.449219 0.36719,0.179687 0.70703,0.378906 1.01953,0.605468 0.3125,0.222657 0.58984,0.46875 0.83594,0.734376 0.24219,0.265624 0.44922,0.546874 0.62109,0.839843 0.16797,0.292969 0.29297,0.597657 0.37891,0.910157 0.0898,0.3125 0.13281,0.628906 0.13281,0.945312 0,0.320312 -0.043,0.636719 -0.13281,0.949219 -0.0859,0.3125 -0.21094,0.617187 -0.37891,0.910156 -0.17187,0.292969 -0.3789,0.574219 -0.62109,0.839844 -0.2461,0.265625 -0.52344,0.507812 -0.83594,0.734375 -0.3125,0.226562 -0.65234,0.425781 -1.01953,0.605468 -0.36719,0.175782 -0.75391,0.324219 -1.16406,0.445313 -0.40625,0.125 -0.82422,0.214844 -1.25782,0.277344 -0.43359,0.0625 -0.87109,0.09375 -1.3125,0.09375 z m 0,0"
       id="path43" />
    <path
       style="fill:#000000;fill-opacity:1;fill-rule:nonzero;stroke:none"
       d="m 89.980469,146.35937 c 0,0.44141 -0.03125,0.87891 -0.09375,1.3086 -0.0625,0.43359 -0.152344,0.85547 -0.277344,1.26172 -0.121094,0.40625 -0.269531,0.79687 -0.445313,1.16015 -0.179687,0.36719 -0.378906,0.70703 -0.605468,1.01953 -0.226563,0.3125 -0.46875,0.58985 -0.734375,0.83594 -0.265625,0.2461 -0.546875,0.45313 -0.839844,0.6211 -0.292969,0.16796 -0.597656,0.29687 -0.910156,0.38281 -0.3125,0.0859 -0.628907,0.1289 -0.949219,0.1289 -0.316406,0 -0.632812,-0.043 -0.945312,-0.1289 -0.3125,-0.0859 -0.617188,-0.21485 -0.910157,-0.38281 -0.292969,-0.16797 -0.574219,-0.375 -0.839843,-0.6211 -0.265626,-0.24609 -0.511719,-0.52344 -0.734376,-0.83594 -0.226562,-0.3125 -0.425781,-0.65234 -0.605468,-1.01953 -0.175782,-0.36328 -0.324219,-0.7539 -0.449219,-1.16015 -0.121094,-0.40625 -0.210937,-0.82813 -0.273437,-1.26172 -0.0625,-0.42969 -0.09375,-0.86719 -0.09375,-1.3086 0,-0.4414 0.03125,-0.8789 0.09375,-1.3125 0.0625,-0.43359 0.152343,-0.85156 0.273437,-1.26171 0.125,-0.40625 0.273437,-0.79297 0.449219,-1.16016 0.179687,-0.36719 0.378906,-0.70703 0.605468,-1.01953 0.222657,-0.3125 0.46875,-0.58985 0.734376,-0.83594 0.265624,-0.24609 0.546874,-0.45312 0.839843,-0.62109 0.292969,-0.16797 0.597657,-0.29688 0.910157,-0.38282 0.3125,-0.0859 0.628906,-0.1289 0.945312,-0.1289 0.320312,0 0.636719,0.043 0.949219,0.1289 0.3125,0.0859 0.617187,0.21485 0.910156,0.38282 0.292969,0.16797 0.574219,0.375 0.839844,0.62109 0.265625,0.24609 0.507812,0.52344 0.734375,0.83594 0.226562,0.3125 0.425781,0.65234 0.605468,1.01953 0.175782,0.36719 0.324219,0.75391 0.445313,1.16016 0.125,0.41015 0.214844,0.82812 0.277344,1.26171 0.0625,0.4336 0.09375,0.8711 0.09375,1.3125 z m 0,0"
       id="path45" />
    <path
       style="fill:#000000;fill-opacity:1;fill-rule:nonzero;stroke:none"
       d="m 23.523438,89.980469 c -0.441407,0 -0.878907,-0.03125 -1.3125,-0.09375 -0.433594,-0.0625 -0.851563,-0.152344 -1.261719,-0.277344 -0.40625,-0.121094 -0.792969,-0.269531 -1.160157,-0.445313 -0.367187,-0.179687 -0.707031,-0.378906 -1.019531,-0.605468 -0.3125,-0.226563 -0.589843,-0.46875 -0.835937,-0.734375 C 17.6875,87.558594 17.480469,87.277344 17.3125,86.984375 17.144531,86.691406 17.015625,86.386719 16.929688,86.074219 16.84375,85.761719 16.800781,85.445312 16.800781,85.125 c 0,-0.316406 0.04297,-0.632812 0.128907,-0.945312 0.08594,-0.3125 0.214843,-0.617188 0.382812,-0.910157 0.167969,-0.292969 0.375,-0.574219 0.621094,-0.839843 0.246094,-0.265626 0.523437,-0.511719 0.835937,-0.734376 0.3125,-0.226562 0.652344,-0.425781 1.019531,-0.605468 0.367188,-0.175782 0.753907,-0.324219 1.160157,-0.449219 0.410156,-0.121094 0.828125,-0.210937 1.261719,-0.273437 0.433593,-0.0625 0.871093,-0.09375 1.3125,-0.09375 0.441406,0 0.875,0.03125 1.308593,0.09375 0.433594,0.0625 0.855469,0.152343 1.261719,0.273437 0.40625,0.125 0.792969,0.273437 1.160156,0.449219 0.367188,0.179687 0.707032,0.378906 1.019532,0.605468 0.3125,0.222657 0.589843,0.46875 0.835937,0.734376 0.246094,0.265624 0.453125,0.546874 0.621094,0.839843 0.167969,0.292969 0.296875,0.597657 0.382812,0.910157 0.08594,0.3125 0.128907,0.628906 0.128907,0.945312 0,0.320312 -0.04297,0.636719 -0.128907,0.949219 -0.08594,0.3125 -0.214843,0.617187 -0.382812,0.910156 -0.167969,0.292969 -0.375,0.574219 -0.621094,0.839844 -0.246094,0.265625 -0.523437,0.507812 -0.835937,0.734375 -0.3125,0.226562 -0.652344,0.425781 -1.019532,0.605468 -0.367187,0.175782 -0.753906,0.324219 -1.160156,0.445313 -0.40625,0.125 -0.828125,0.214844 -1.261719,0.277344 -0.433593,0.0625 -0.867187,0.09375 -1.308593,0.09375 z m 0,0"
       id="path47" />
    <use
       xlink:href="#surface5"
       transform="translate(36,75)"
       mask="url(#mask0)"
       id="use49"
       x="0"
       y="0"
       width="100%"
       height="100%" />
    <path
       style="fill:#454763;fill-opacity:1;fill-rule:nonzero;stroke:none"
       d="M 95.523438,94.921875 46.128906,123.71484 74.921875,74.320312 Z m 0,0"
       id="path51" />
    <use
       xlink:href="#surface8"
       transform="translate(76,37)"
       mask="url(#mask1)"
       id="use53"
       x="0"
       y="0"
       width="100%"
       height="100%" />
    <path
       style="fill:#e13028;fill-opacity:1;fill-rule:nonzero;stroke:none"
       d="M 74.722656,74.609375 124.14844,45.777344 95.3125,95.203125 Z m 0,0"
       id="path55" />
  </g>
</svg>
